<svg width="12" height="13" viewBox="0 0 12 13" fill="none" xmlns="http://www.w3.org/2000/svg">
<path d="M9.75 2H8.625V1.625C8.625 1.52554 8.58549 1.43016 8.51517 1.35983C8.44484 1.28951 8.34946 1.25 8.25 1.25C8.15054 1.25 8.05516 1.28951 7.98483 1.35983C7.91451 1.43016 7.875 1.52554 7.875 1.625V2H4.125V1.625C4.125 1.52554 4.08549 1.43016 4.01516 1.35983C3.94484 1.28951 3.84946 1.25 3.75 1.25C3.65054 1.25 3.55516 1.28951 3.48484 1.35983C3.41451 1.43016 3.375 1.52554 3.375 1.625V2H2.25C2.05109 2 1.86032 2.07902 1.71967 2.21967C1.57902 2.36032 1.5 2.55109 1.5 2.75V10.25C1.5 10.4489 1.57902 10.6397 1.71967 10.7803C1.86032 10.921 2.05109 11 2.25 11H9.75C9.94891 11 10.1397 10.921 10.2803 10.7803C10.421 10.6397 10.5 10.4489 10.5 10.25V2.75C10.5 2.55109 10.421 2.36032 10.2803 2.21967C10.1397 2.07902 9.94891 2 9.75 2ZM3.375 2.75V3.125C3.375 3.22446 3.41451 3.31984 3.48484 3.39016C3.55516 3.46049 3.65054 3.5 3.75 3.5C3.84946 3.5 3.94484 3.46049 4.01516 3.39016C4.08549 3.31984 4.125 3.22446 4.125 3.125V2.75H7.875V3.125C7.875 3.22446 7.91451 3.31984 7.98483 3.39016C8.05516 3.46049 8.15054 3.5 8.25 3.5C8.34946 3.5 8.44484 3.46049 8.51517 3.39016C8.58549 3.31984 8.625 3.22446 8.625 3.125V2.75H9.75V4.25H2.25V2.75H3.375ZM9.75 10.25H2.25V5H9.75V10.25Z" fill="#343A40"/>
</svg>
